<svg width="24" height="24" viewBox="0 0 24 24" fill="none" xmlns="http://www.w3.org/2000/svg">
<rect width="24" height="24" fill="#1E1E1E"/>
<g id="Sign In / Mobile / V.2" clip-path="url(#clip0_0_1)">
<rect width="375" height="812" transform="translate(-32 -369)" fill="white"/>
<g id="2">
<rect id="Rectangle 6" x="-16" y="-17" width="343" height="58" rx="12" fill="#F8F8F8"/>
<g id="lock">
<path id="Vector" d="M6 10V8C6 4.69 7 2 12 2C17 2 18 4.69 18 8V10" stroke="#333333" stroke-width="1.5" stroke-linecap="round" stroke-linejoin="round"/>
<path id="Vector_2" d="M12 18.5C13.3807 18.5 14.5 17.3807 14.5 16C14.5 14.6193 13.3807 13.5 12 13.5C10.6193 13.5 9.5 14.6193 9.5 16C9.5 17.3807 10.6193 18.5 12 18.5Z" stroke="#333333" stroke-width="1.5" stroke-linecap="round" stroke-linejoin="round"/>
<path id="Vector_3" d="M17 22H7C3 22 2 21 2 17V15C2 11 3 10 7 10H17C21 10 22 11 22 15V17C22 21 21 22 17 22Z" stroke="#333333" stroke-width="1.5" stroke-linecap="round" stroke-linejoin="round"/>
</g>
</g>
</g>
<defs>
<clipPath id="clip0_0_1">
<rect width="375" height="812" fill="white" transform="translate(-32 -369)"/>
</clipPath>
</defs>
</svg>
